<svg width="136" height="32" viewBox="0 0 136 32" fill="none" xmlns="http://www.w3.org/2000/svg">
<path d="M0 16C0 7.16344 7.16344 0 16 0H37C45.8366 0 53 7.16344 53 16V32H16C7.16344 32 0 24.8366 0 16Z" fill="#4845D2"/>
<path d="M37 6H16C10.4772 6 6 10.4772 6 16C6 21.5228 10.4772 26 16 26H37C42.5228 26 47 21.5228 47 16C47 10.4772 42.5228 6 37 6Z" fill="#A5B4FC"/>
<path d="M16 21C18.7614 21 21 18.7614 21 16C21 13.2386 18.7614 11 16 11C13.2386 11 11 13.2386 11 16C11 18.7614 13.2386 21 16 21Z" fill="black"/>
<path d="M14 15C14.5523 15 15 14.5523 15 14C15 13.4477 14.5523 13 14 13C13.4477 13 13 13.4477 13 14C13 14.5523 13.4477 15 14 15Z" fill="white"/>
<path d="M38 21C40.7614 21 43 18.7614 43 16C43 13.2386 40.7614 11 38 11C35.2386 11 33 13.2386 33 16C33 18.7614 35.2386 21 38 21Z" fill="black"/>
<path d="M36 15C36.5523 15 37 14.5523 37 14C37 13.4477 36.5523 13 36 13C35.4477 13 35 13.4477 35 14C35 14.5523 35.4477 15 36 15Z" fill="white"/>
<path d="M70.7233 7.05898C70.6975 7.10582 70.6074 7.12143 70.5237 7.09801C70.3369 7.04337 69.6543 7.2073 69.6543 7.30877C69.6543 7.35561 69.6028 7.37903 69.5448 7.36342C69.416 7.32439 68.7463 7.65224 68.6883 7.77714C68.6626 7.81617 68.5853 7.863 68.508 7.88642C68.3212 7.92545 67.8125 8.35479 67.7674 8.51091C67.7417 8.57336 67.6901 8.628 67.6386 8.628C67.5356 8.628 67.014 9.26029 67.014 9.39299C67.014 9.43983 66.956 9.51789 66.8852 9.56472C66.7306 9.6662 66.37 10.2907 66.37 10.4546C66.37 10.5249 66.3442 10.5795 66.3056 10.5795C66.2219 10.5795 65.9063 11.2586 65.8806 11.4928C65.8741 11.6021 65.8355 11.7192 65.8033 11.7426C65.7196 11.8051 65.4555 12.6169 65.5006 12.6715C65.5199 12.695 65.4942 12.7886 65.4427 12.8823C65.3976 12.9682 65.3203 13.2492 65.2817 13.5068C65.2366 13.7644 65.1722 14.0844 65.14 14.2249C65.0241 14.6777 64.9854 15.7237 65.0047 17.5425C65.0112 17.7455 65.0434 18.0655 65.0885 18.2451C65.1271 18.4324 65.1657 18.729 65.1786 18.9086C65.1851 19.0881 65.243 19.3457 65.301 19.4862C65.3589 19.6189 65.404 19.7985 65.404 19.8765C65.404 20.0639 65.5908 20.6571 65.7067 20.8133C65.7518 20.8757 65.7904 20.9928 65.7904 21.0552C65.7904 21.2036 66.0866 21.8515 66.209 21.9764C66.2605 22.031 66.3056 22.1091 66.3056 22.1559C66.3056 22.2886 66.7757 22.9911 66.8659 22.9911C66.9174 22.9911 66.9753 23.0692 67.0075 23.1629C67.0719 23.3736 67.542 23.8498 67.6773 23.8498C67.7288 23.8498 67.7867 23.9045 67.8061 23.9669C67.8511 24.1074 68.4436 24.4743 68.6239 24.4743C68.6948 24.4743 68.7527 24.5055 68.7527 24.5524C68.7527 24.6304 69.4031 24.888 69.5384 24.8568C69.5835 24.849 69.7444 24.8802 69.8861 24.9271C70.2339 25.0519 71.6056 25.0051 71.7408 24.8724C71.7923 24.8178 71.8696 24.7943 71.9082 24.8256C71.9919 24.888 72.6102 24.646 72.7647 24.4899C72.8227 24.4275 72.8935 24.3884 72.9128 24.4197C72.9708 24.4899 73.5761 24.0137 73.6534 23.842C73.6856 23.7561 73.7436 23.7093 73.7693 23.7249C73.8402 23.7796 74.3747 23.1004 74.394 22.9365C74.4069 22.8584 74.4455 22.7882 74.4842 22.7726C74.5872 22.7257 74.8705 22.0076 74.8705 21.789C74.8705 21.6875 74.8963 21.5861 74.9349 21.5704C75.1668 21.4768 75.1475 19.1193 74.9092 18.4246C74.819 18.1748 74.6129 18.0421 74.6129 18.2373C74.6129 18.2841 74.5228 18.5495 74.4133 18.8305C74.3038 19.1115 74.2072 19.3926 74.2008 19.455C74.1944 19.5175 74.1557 19.5955 74.1171 19.6189C74.0849 19.6502 73.9174 19.8609 73.7436 20.0951C73.3572 20.6259 72.6874 21.0552 72.1658 21.0943C71.9726 21.1099 71.7344 21.1567 71.6313 21.2036C71.5154 21.266 71.4317 21.266 71.3737 21.2192C71.3029 21.1489 70.9229 21.0474 70.5816 21.0162C70.5108 21.0084 70.4077 20.9616 70.3562 20.9147C70.3047 20.8601 70.1051 20.7196 69.9119 20.5947C69.5963 20.3917 68.7527 19.5018 68.7527 19.3691C68.7527 19.3379 68.6368 19.1037 68.4951 18.8461C68.3534 18.5885 68.2375 18.3387 68.2375 18.2919C68.2375 18.167 68.025 17.3396 67.9799 17.2927C67.9542 17.2693 67.9349 17.0117 67.922 16.7151C67.9155 16.4106 67.8833 16.1296 67.8511 16.0828C67.8125 16.0203 67.8125 15.8252 67.8576 15.5364C67.8962 15.2788 67.9091 14.9743 67.8898 14.8572C67.8705 14.7323 67.8769 14.5684 67.9155 14.4982C68.0057 14.2874 68.1152 13.6239 68.0701 13.538C68.0508 13.4912 68.0701 13.3975 68.1216 13.3272C68.2311 13.1711 68.4951 12.4061 68.4951 12.25C68.4951 12.1876 68.5209 12.1407 68.5531 12.1407C68.5788 12.1407 68.727 11.93 68.8686 11.6646C69.2164 11.0479 69.8088 10.5015 70.3627 10.3063C70.5945 10.2282 70.8135 10.1424 70.8457 10.119C70.8843 10.0955 71.1676 10.0877 71.4832 10.1033C71.9597 10.1268 72.1079 10.158 72.3075 10.3141C72.681 10.6029 72.7905 10.7591 72.8356 11.0947C72.9386 11.7973 72.945 11.8285 73.164 11.9534C73.4023 12.0861 73.8273 12.0471 74.0656 11.8753C74.1364 11.8207 74.2716 11.7504 74.3618 11.727C74.5486 11.6724 74.9349 11.1884 74.9349 11.0167C74.9349 10.9542 74.98 10.8059 75.0315 10.6888C75.141 10.4312 75.1603 9.75207 75.0573 9.68182C75.0187 9.65059 75.0058 9.57253 75.0315 9.50228C75.0766 9.35396 74.7611 8.54994 74.6516 8.54994C74.6065 8.54994 74.5357 8.46407 74.497 8.36259C74.4198 8.15963 73.8788 7.66785 73.8144 7.74591C73.7951 7.76933 73.7243 7.7303 73.6534 7.66005C73.4989 7.48831 72.8871 7.2073 72.8034 7.26974C72.7712 7.29316 72.7068 7.27755 72.6617 7.23852C72.5329 7.11362 72.256 7.06679 71.4961 7.01214C70.9873 6.98873 70.7491 6.99653 70.7233 7.05898Z" fill="#4845D2"/>
<path d="M82.113 7.01677C82.1006 7.04094 81.4964 7.05705 80.7801 7.05705L79.4722 7.06511L79.3725 7.29071C79.3102 7.41156 79.2666 7.61299 79.2666 7.72578C79.2666 7.83858 79.2417 7.93527 79.2106 7.93527C79.1545 7.93527 78.9926 8.79737 79.0237 8.94239C79.0299 8.98268 79.005 9.16799 78.9677 9.34524C78.9303 9.5225 78.8867 9.88506 78.868 10.1509C78.8555 10.4168 78.8306 10.6908 78.8119 10.7552C78.7559 10.9405 78.6375 12.9064 78.6189 13.8572C78.6126 14.1633 78.5877 14.4695 78.5628 14.5178C78.5068 14.6306 78.5068 14.6951 78.5005 18.6108C78.4943 21.3179 78.5441 23.3483 78.6251 23.5175C78.65 23.5659 78.6625 23.7028 78.6562 23.8317C78.6313 24.1862 78.7621 24.7019 78.9116 24.863C79.0299 24.9839 79.2043 25 80.4376 25H81.8265L81.9137 24.7744C81.9947 24.581 81.9885 24.5085 81.8826 24.1379C81.8141 23.9123 81.7331 23.6625 81.7019 23.582C81.6272 23.3967 81.4466 22.3976 81.4092 21.9947C81.3967 21.8175 81.3594 21.4871 81.3282 21.2696C81.2971 21.044 81.2722 20.617 81.266 20.3108C81.2597 19.9966 81.241 19.7227 81.2224 19.6904C81.2099 19.6582 81.241 19.4004 81.3033 19.1184C81.3594 18.8444 81.4092 18.5544 81.4154 18.4899C81.4217 18.3691 81.4839 18.2643 81.839 17.7245C81.9324 17.5795 82.0071 17.4264 82.0071 17.3942C82.0134 17.3539 82.1815 17.2089 82.3933 17.08C82.6051 16.943 82.8044 16.798 82.8417 16.7577C82.9227 16.661 83.6888 16.3951 84.0002 16.3548C84.7103 16.2662 85.0404 16.2904 85.4515 16.4837C85.875 16.6771 85.8812 16.6771 86.0058 17.1203C86.093 17.4506 86.1304 17.797 86.1366 18.4738C86.1428 18.9653 86.1304 19.3843 86.1054 19.4004C86.0805 19.4084 86.0494 19.6824 86.0307 20.0047C86.012 20.3189 85.9809 20.625 85.956 20.6734C85.8875 20.8184 85.7504 21.6644 85.7878 21.7369C85.8003 21.7691 85.7878 21.8497 85.7504 21.9061C85.6445 22.0673 85.4826 22.6957 85.4826 22.9374C85.4888 23.0663 85.4639 23.163 85.439 23.163C85.3705 23.163 85.1463 23.9929 85.0902 24.4199C85.0279 24.9597 85.0591 24.9758 86.6722 24.9919C88.0176 25 88.3539 24.9597 88.2605 24.7663C88.2418 24.718 88.2667 24.6213 88.3165 24.5488C88.4473 24.3635 88.4972 23.9204 88.5844 22.1559C88.6342 21.189 88.6404 15.9762 88.5906 15.0657C88.4972 13.2932 88.4723 12.9709 88.4162 12.8742C88.3788 12.8259 88.3664 12.7131 88.3851 12.6325C88.4037 12.5519 88.3913 12.286 88.3539 12.0443C88.3228 11.8026 88.2792 11.4884 88.2729 11.3595C88.2356 10.8922 88.1546 10.3121 88.1172 10.2315C88.0986 10.1832 88.0736 10.014 88.0674 9.85283C88.0612 9.69169 88.0051 9.40164 87.9491 9.20827C87.8992 9.0149 87.8494 8.80542 87.8494 8.74097C87.8494 8.55566 87.6688 7.83052 87.5878 7.70161C87.5504 7.63716 87.4944 7.47602 87.457 7.33905L87.3947 7.08928L86.3982 7.08122C85.8501 7.07317 85.2584 7.04094 85.0778 7.01677C84.8784 6.98454 84.7414 7.00065 84.7165 7.049C84.6916 7.09734 84.6231 7.11345 84.5546 7.08928C84.3054 6.98454 84.3241 7.45185 84.5857 7.95944C84.6729 8.12058 84.7352 8.25755 84.7165 8.25755C84.6729 8.25755 85.003 9.1841 85.0653 9.23244C85.0964 9.25661 85.14 9.37747 85.1587 9.50638C85.1774 9.63529 85.2646 9.9334 85.358 10.1832C85.4452 10.4329 85.5262 10.6666 85.5262 10.7149C85.5387 10.9405 85.7068 11.7221 85.7442 11.7221C85.7691 11.7221 85.794 12.0282 85.8003 12.4069C85.8127 13.0756 85.8065 13.0998 85.6508 13.1723C85.5636 13.2126 84.947 13.269 84.2867 13.2851C83.5829 13.3012 83.0286 13.3576 82.9539 13.406C82.8853 13.4543 82.7483 13.4946 82.6487 13.4946C82.4556 13.4946 81.9386 13.7766 81.8701 13.9136C81.8016 14.0666 81.5151 13.8572 81.4403 13.5993C81.403 13.4704 81.3469 13.3173 81.322 13.2529C81.2971 13.1804 81.3033 12.8903 81.3345 12.6083C81.3656 12.3183 81.3718 12.0121 81.3594 11.9315C81.3407 11.8429 81.3531 11.7301 81.3843 11.6898C81.4092 11.6415 81.4715 11.3675 81.5089 11.0775C81.5525 10.7874 81.6085 10.4813 81.6397 10.3927C81.7206 10.1187 81.839 9.59501 81.8577 9.41775C81.8639 9.32913 81.9013 9.1841 81.9386 9.09547C82.057 8.82154 82.194 8.322 82.194 8.1528C82.194 8.06418 82.2376 7.91915 82.2936 7.84664C82.3497 7.76607 82.3995 7.56464 82.4058 7.4035C82.412 7.16985 82.3808 7.09734 82.275 7.049C82.2064 7.00871 82.1317 6.9926 82.113 7.01677Z" fill="#4845D2"/>
<path d="M97.0864 7.14585C96.9483 7.23317 96.8282 7.33635 96.8102 7.39192C96.7982 7.43954 96.7501 7.48717 96.7021 7.49511C96.558 7.52686 96.1736 7.86023 96.0475 8.07455C95.9875 8.17774 95.9154 8.26505 95.8914 8.26505C95.8313 8.26505 95.2608 8.91593 95.2608 8.98737C95.2608 9.02705 95.1167 9.24931 94.9486 9.48743C94.7744 9.72556 94.5883 9.97956 94.5402 10.0669C94.1619 10.686 94.0478 10.9003 94.0358 11.0114C94.0238 11.0829 93.9817 11.1861 93.9277 11.2337C93.8076 11.3528 93.5193 12.0195 93.5193 12.1783C93.5193 12.2497 93.4833 12.337 93.4352 12.3688C93.3272 12.4561 93.0269 13.2498 93.0689 13.3451C93.0869 13.3848 93.0689 13.4403 93.0329 13.4641C92.9488 13.5356 92.7326 14.1944 92.7086 14.4802C92.6966 14.6072 92.6606 14.75 92.6305 14.7977C92.5525 14.9247 92.3723 15.7343 92.4084 15.8057C92.4264 15.8375 92.3963 15.9724 92.3423 16.1074C92.2943 16.2423 92.2402 16.5439 92.2222 16.7741C92.2042 17.0043 92.1621 17.2821 92.1321 17.3932C92.042 17.7107 92 18.7426 92 20.4889C92.006 22.4574 92.042 23.1797 92.1561 23.4734C92.2042 23.6004 92.2282 23.7433 92.2162 23.7988C92.1742 23.9417 92.4444 24.6164 92.5825 24.7117C92.6486 24.7593 92.7386 24.8466 92.7807 24.9022C92.8347 24.9736 93.201 24.9974 94.1799 24.9974C95.2728 25.0053 95.5191 24.9815 95.5911 24.8863C95.6392 24.8148 95.6812 24.7275 95.6812 24.6799C95.6812 24.5767 95.3809 23.8782 95.3089 23.8147C95.2789 23.7909 95.2488 23.7036 95.2368 23.6163C95.2068 23.4258 94.9546 22.6876 94.9065 22.632C94.8825 22.6082 94.8285 22.3383 94.7864 22.0367C94.7384 21.7271 94.6843 21.4414 94.6543 21.3938C94.6243 21.3461 94.6303 21.0842 94.6723 20.7984C94.7084 20.5206 94.7384 20.2349 94.7444 20.1634C94.7504 20.092 94.8885 19.8459 95.0567 19.6237C95.2188 19.3935 95.3629 19.1712 95.3689 19.1316C95.3809 19.0919 95.423 19.0601 95.471 19.0601C95.5131 19.0601 95.6752 18.9887 95.8373 18.8934C95.9995 18.8061 96.1856 18.7029 96.2517 18.6632C96.4379 18.5601 97.1585 18.4172 97.6809 18.3854C97.9392 18.3616 98.1734 18.3299 98.2034 18.3061C98.2274 18.2902 98.4736 18.3299 98.7499 18.4013C99.1462 18.5045 99.2843 18.5839 99.4165 18.7585C99.6987 19.1395 99.7527 19.4094 99.6867 20.1714C99.6567 20.5444 99.6086 20.9175 99.5846 21.0048C99.4645 21.3858 99.3564 21.9097 99.3864 21.9494C99.4104 21.9732 99.3804 22.0605 99.3324 22.132C99.2243 22.3066 98.9841 23.0527 98.9841 23.2194C98.9841 23.2829 98.9601 23.3464 98.93 23.3623C98.852 23.402 98.5637 24.1878 98.5637 24.3624C98.5637 24.4418 98.5397 24.537 98.5037 24.5847C98.4676 24.6323 98.4736 24.7196 98.5337 24.8387C98.6238 25.0053 98.6538 25.0053 100.029 24.9974C100.798 24.9974 101.464 24.9657 101.506 24.9339C101.674 24.791 101.939 24.0211 101.951 23.6242C101.957 23.4496 101.981 23.2591 102.011 23.2035C102.155 22.894 102.167 17.3218 102.023 17.0043C101.999 16.9567 101.969 16.6868 101.957 16.3931C101.939 16.1074 101.909 15.8295 101.879 15.774C101.849 15.7263 101.807 15.4803 101.789 15.2342C101.771 14.9882 101.71 14.6548 101.65 14.496C101.596 14.3452 101.566 14.1944 101.584 14.1706C101.626 14.115 101.404 13.2578 101.326 13.1546C101.29 13.107 101.266 13.0038 101.266 12.9085C101.266 12.718 101.044 12.0592 100.96 11.9878C100.924 11.9639 100.888 11.8449 100.882 11.7338C100.858 11.4956 100.563 10.8051 100.485 10.8051C100.449 10.8051 100.425 10.7495 100.425 10.6701C100.425 10.4876 100.077 9.78906 99.9329 9.68587C99.8729 9.64618 99.8368 9.57474 99.8548 9.53506C99.9029 9.43187 98.858 8.01898 98.6418 7.89992C98.5337 7.83642 98.4436 7.74911 98.4436 7.70942C98.4436 7.58242 97.8971 7.15379 97.747 7.15379C97.6689 7.15379 97.5909 7.1141 97.5729 7.07442C97.5188 6.95535 97.3627 6.97916 97.0864 7.14585ZM97.783 10.9718C97.8671 11.0591 97.9812 11.1464 98.0353 11.1702C98.0953 11.2019 98.1554 11.2972 98.1794 11.3845C98.2034 11.4798 98.3295 11.7576 98.4676 11.9957C98.5997 12.2338 98.7138 12.464 98.7138 12.5116C98.7198 12.6307 98.9841 13.3768 99.0381 13.4245C99.0621 13.4483 99.1282 13.7816 99.1823 14.1627C99.2723 14.7977 99.2723 14.877 99.1883 15.0517C99.0742 15.2739 98.864 15.3533 98.2635 15.3771C97.5488 15.4009 96.9243 15.4803 96.7621 15.5597C96.6781 15.5993 96.4319 15.6628 96.2097 15.6867C95.9875 15.7184 95.7893 15.774 95.7713 15.8137C95.7112 15.9327 95.1648 15.901 95.0867 15.774C94.9666 15.5835 95.0507 14.8612 95.2548 14.3135C95.3569 14.0356 95.429 13.7816 95.411 13.742C95.393 13.7023 95.405 13.6546 95.441 13.6229C95.5191 13.5594 95.9214 12.7339 95.9214 12.6386C95.9214 12.6069 96.0175 12.4323 96.1436 12.2656C96.2637 12.0989 96.4078 11.8608 96.4619 11.7417C96.5159 11.6226 96.7321 11.3448 96.9483 11.1305C97.3627 10.7098 97.4948 10.6781 97.783 10.9718Z" fill="#4845D2"/>
<path d="M107.286 7.01938C107.268 7.04324 107.081 7.07504 106.87 7.0989C106.659 7.1148 106.351 7.16251 106.182 7.21022C106.019 7.24998 105.712 7.32154 105.506 7.3772C105.295 7.42491 105.126 7.49648 105.126 7.52828C105.126 7.56804 105.036 7.5919 104.921 7.5919C104.734 7.5919 104.426 7.75093 104.04 8.04514C103.889 8.15646 103.648 8.91186 103.714 9.05499C103.732 9.09475 103.714 9.17426 103.678 9.24583C103.575 9.40486 103.443 10.1921 103.479 10.3909C103.497 10.4783 103.485 10.5499 103.449 10.5499C103.382 10.5499 103.316 10.9634 103.274 11.5836C103.201 12.6889 103.274 12.8081 103.793 12.4503C103.992 12.3072 104.251 12.0846 104.36 11.9494C104.468 11.8142 104.662 11.6313 104.788 11.5438C104.921 11.4564 105.102 11.2894 105.193 11.1622C105.283 11.0429 105.386 10.9475 105.428 10.9475C105.506 10.9475 105.965 10.6533 106.092 10.5181C106.188 10.4147 106.659 10.2557 106.967 10.2159L107.148 10.1921L107.184 10.868C107.202 11.2417 107.196 11.5995 107.172 11.6631C107.093 11.854 107.003 12.5537 107.039 12.673C107.057 12.7286 107.045 12.824 107.009 12.8797C106.955 12.9672 106.906 13.2693 106.846 13.9373C106.834 14.0645 106.792 14.3826 106.755 14.637C106.719 14.8994 106.707 15.1618 106.725 15.2254C106.743 15.289 106.731 15.3845 106.701 15.4322C106.641 15.5196 106.58 16.4182 106.544 17.5473C106.538 17.8336 106.52 18.2788 106.514 18.5492C106.502 18.8116 106.514 19.074 106.538 19.1297C106.562 19.1774 106.55 19.2807 106.514 19.3444C106.46 19.4239 106.448 19.5988 106.478 19.9169C106.502 20.1634 106.532 20.9506 106.538 21.6583C106.55 22.4852 106.587 22.9941 106.629 23.0657C106.665 23.1214 106.683 23.2327 106.659 23.2963C106.617 23.4633 106.749 24.3062 106.822 24.3062C106.852 24.3062 106.876 24.3857 106.876 24.489C106.876 24.5924 106.936 24.7515 107.015 24.8389C107.142 24.998 107.208 25.0059 108.493 24.998C109.99 24.99 110.074 24.9661 110.074 24.5209C110.074 24.3777 110.032 24.1789 109.978 24.0835C109.93 23.9881 109.899 23.8768 109.917 23.837C109.96 23.7495 109.767 22.851 109.694 22.7874C109.658 22.7556 109.652 22.6761 109.67 22.6204C109.706 22.4852 109.616 21.8014 109.519 21.547C109.483 21.4595 109.471 21.3482 109.489 21.3084C109.507 21.2766 109.495 21.0858 109.465 20.887C109.302 19.8056 109.223 18.2232 109.23 16.1558C109.23 14.3587 109.254 13.6669 109.338 12.9751C109.368 12.7127 109.38 12.4503 109.368 12.3947C109.35 12.339 109.362 12.2515 109.398 12.1959C109.435 12.1482 109.495 11.8699 109.537 11.5836C109.616 11.0667 109.724 10.7884 110.008 10.367C110.135 10.1841 110.189 10.1603 110.37 10.2C110.491 10.2239 110.69 10.2954 110.817 10.3591C110.937 10.4147 111.04 10.4465 111.04 10.4147C111.04 10.3829 111.197 10.5578 111.39 10.7964C111.577 11.0429 111.782 11.2655 111.842 11.2894C111.897 11.3212 111.945 11.3928 111.945 11.4564C111.945 11.5995 112.301 11.9971 112.392 11.9573C112.428 11.9414 112.488 11.854 112.524 11.7585C112.56 11.6631 112.633 11.52 112.681 11.4484C112.826 11.2337 113.031 10.6533 113.031 10.4704C113.031 10.3829 113.055 10.3113 113.085 10.3113C113.164 10.3113 113.327 9.62751 113.363 9.14246C113.393 8.76078 113.375 8.70512 113.206 8.44272C113.104 8.29164 112.983 8.16441 112.941 8.16441C112.892 8.16441 112.82 8.10875 112.766 8.04514C112.645 7.87815 112.15 7.6078 111.975 7.6078C111.897 7.6078 111.818 7.57599 111.8 7.54419C111.764 7.47262 111.148 7.27383 111.064 7.30564C111.034 7.31359 110.913 7.28178 110.798 7.22612C110.678 7.17046 110.406 7.10685 110.195 7.08299C109.64 7.01938 107.323 6.97167 107.286 7.01938Z" fill="#4845D2"/>
<path d="M116.125 7.1698C115.987 7.34768 115.741 8.18858 115.81 8.26135C115.826 8.27752 115.795 8.42306 115.734 8.58477C115.665 8.7384 115.604 9.05373 115.581 9.28821C115.565 9.51461 115.496 9.93506 115.435 10.2261C115.374 10.5172 115.343 10.8164 115.366 10.8972C115.389 10.9781 115.374 11.0913 115.32 11.1479C115.274 11.2126 115.228 11.5117 115.213 11.8271C115.198 12.1343 115.159 12.4335 115.129 12.482C115.098 12.5386 115.067 12.8297 115.052 13.1369C115.044 13.4361 115.006 13.7272 114.975 13.7757C114.952 13.8242 114.914 14.1315 114.899 14.4549C114.891 14.7783 114.86 15.0937 114.83 15.1583C114.776 15.3039 114.684 16.5491 114.677 17.2363C114.677 17.5193 114.646 17.7457 114.608 17.7457C114.569 17.7457 114.546 18.0287 114.562 18.3683C114.569 18.716 114.554 19.0556 114.523 19.1203C114.5 19.1849 114.493 19.7348 114.508 20.3331C114.531 20.9314 114.562 22.0392 114.577 22.7992C114.592 23.5512 114.615 24.2465 114.623 24.3355C114.654 24.6427 114.807 24.8529 115.044 24.9338C115.19 24.9823 117.052 25.0066 119.856 24.9985C123.809 24.9823 124.445 24.9661 124.545 24.861C124.644 24.7559 124.644 24.6427 124.583 24.1333C124.537 23.8018 124.453 23.4218 124.391 23.2924C124.338 23.163 124.307 23.0337 124.322 22.9932C124.376 22.9124 124.215 22.217 124.1 21.9906C124.062 21.9017 124.016 21.7076 124.001 21.554C123.978 21.174 123.541 20.2522 123.388 20.2522C123.219 20.2522 122.767 20.5595 122.675 20.7455C122.629 20.8263 122.553 20.8991 122.514 20.8991C122.43 20.8991 121.878 21.3195 121.718 21.4974C121.641 21.5864 121.005 21.8613 120.706 21.926C120.607 21.9502 120.53 21.9906 120.53 22.023C120.53 22.0957 119.128 22.0311 119.074 21.9583C119.051 21.934 118.837 21.7642 118.599 21.5944C118.354 21.4166 118.155 21.2387 118.155 21.1902C118.155 21.0851 117.833 20.228 117.772 20.1714C117.741 20.1471 117.718 19.8965 117.711 19.6135C117.695 19.3305 117.665 19.0394 117.626 18.9666C117.588 18.8939 117.58 18.5543 117.611 18.2066C117.642 17.8589 117.634 17.5517 117.603 17.5355C117.565 17.5112 117.573 17.4304 117.619 17.3495C117.657 17.2687 117.695 16.9533 117.703 16.6461C117.703 16.3388 117.741 15.9588 117.779 15.789C117.818 15.6273 117.864 15.32 117.871 15.1017C117.887 14.8915 117.917 14.657 117.948 14.5923C118.04 14.3417 118.14 13.6868 118.101 13.5331C118.078 13.4523 118.094 13.3795 118.132 13.3795C118.216 13.3795 118.385 12.6761 118.385 12.3203C118.385 12.1909 118.415 12.0858 118.446 12.0858C118.507 12.0858 118.73 11.3419 118.73 11.1156C118.737 11.0509 118.76 10.9538 118.783 10.9134C118.898 10.7194 119.151 9.92697 119.151 9.76526C119.151 9.66824 119.182 9.57929 119.212 9.56312C119.281 9.53887 119.611 8.71414 119.611 8.57668C119.611 8.52817 119.695 8.30178 119.802 8.08346C120.024 7.59833 120.032 7.41236 119.848 7.17788C119.718 7.00808 119.657 7.00808 117.986 7C116.324 7 116.262 7.00808 116.125 7.1698Z" fill="#4845D2"/>
<path d="M126.599 7.06487C126.549 7.1051 126.439 7.11315 126.353 7.08901C126.119 7.03269 125.842 7.35454 125.848 7.67639C125.854 7.80513 125.823 7.99019 125.786 8.08675C125.657 8.42469 125.897 11.0639 126.1 11.5788C126.168 11.7398 126.211 11.8926 126.193 11.9168C126.143 11.9731 126.396 12.7777 126.513 12.9467C126.568 13.0352 126.599 13.1237 126.58 13.1478C126.531 13.2122 126.759 13.8157 126.925 14.049C126.999 14.1456 127.06 14.2824 127.066 14.3467C127.085 14.5157 127.331 15.0146 127.485 15.1996C127.552 15.2882 127.614 15.3928 127.614 15.4249C127.614 15.5376 128.045 16.2296 128.112 16.2376C128.149 16.2376 128.217 16.3422 128.26 16.479C128.303 16.6077 128.463 16.8733 128.623 17.0583C128.777 17.2514 128.906 17.4285 128.906 17.4606C128.906 17.4848 129.035 17.702 129.202 17.9273C129.362 18.1607 129.491 18.4021 129.491 18.4584C129.491 18.5228 129.435 18.7561 129.368 18.9814C129.306 19.2147 129.263 19.432 129.275 19.4642C129.294 19.4964 129.263 19.5768 129.214 19.6492C129.097 19.8021 128.875 20.47 128.875 20.6792C128.875 20.7596 128.839 20.8803 128.795 20.9447C128.752 21.001 128.679 21.2585 128.635 21.516C128.592 21.7815 128.525 22.1275 128.488 22.3045C128.451 22.4735 128.42 23.0045 128.414 23.4793C128.414 24.2758 128.426 24.3643 128.555 24.5414C128.629 24.654 128.672 24.7586 128.654 24.7908C128.549 24.9195 129.005 25 129.897 25C131.244 24.992 131.417 24.9678 131.564 24.7023C131.669 24.5172 131.681 24.4207 131.632 24.0023C131.577 23.439 131.552 22.0792 131.601 21.9746C131.62 21.9424 131.657 21.6367 131.675 21.3068C131.7 20.9769 131.743 20.6631 131.767 20.6228C131.817 20.5343 131.964 19.8987 131.977 19.6975C131.983 19.6251 132.014 19.5205 132.044 19.4561C132.18 19.1825 132.383 18.5469 132.383 18.4021C132.383 18.3216 132.407 18.2492 132.438 18.2492C132.494 18.2492 132.875 17.4204 132.875 17.2917C132.875 17.2514 132.949 17.1147 133.047 16.9859C133.14 16.8491 133.269 16.5997 133.337 16.4307C133.404 16.2618 133.533 16.0123 133.632 15.8836C133.724 15.7468 133.853 15.4893 133.927 15.3042C133.995 15.1111 134.075 14.9502 134.1 14.9341C134.18 14.8858 134.536 14.1617 134.536 14.0329C134.536 13.9686 134.573 13.8801 134.616 13.8479C134.74 13.7513 135.096 12.8904 135.041 12.826C135.016 12.7938 135.041 12.7214 135.096 12.6731C135.201 12.5685 135.404 11.957 135.429 11.6673C135.441 11.5627 135.478 11.442 135.509 11.3857C135.539 11.3294 135.601 11.088 135.638 10.8466C135.681 10.6052 135.736 10.2512 135.773 10.0581C135.866 9.4868 135.915 7.82122 135.835 7.75685C135.798 7.72467 135.767 7.61202 135.767 7.50742C135.767 7.1212 135.539 7.03269 134.518 7.00855C133.903 6.99246 133.57 7.01659 133.515 7.07292C133.466 7.1212 133.392 7.14533 133.343 7.1212C133.3 7.09706 133.226 7.1212 133.189 7.16947C133.103 7.28212 133.103 8.00628 133.189 8.0787C133.226 8.10284 133.238 8.20744 133.226 8.304C133.207 8.39251 133.214 8.7224 133.238 9.03621C133.269 9.34197 133.269 9.63163 133.244 9.67991C133.195 9.76842 133.09 10.5972 133.109 10.7179C133.121 10.7501 133.097 10.8225 133.066 10.8788C132.998 10.9834 132.752 11.8202 132.752 11.9409C132.752 11.9972 132.654 12.2306 132.53 12.4639C132.414 12.6973 132.297 12.995 132.278 13.1157C132.26 13.2364 132.223 13.341 132.198 13.341C132.124 13.341 131.706 14.1295 131.706 14.2663C131.706 14.3307 131.681 14.387 131.644 14.387C131.614 14.387 131.454 14.5479 131.294 14.7491C130.986 15.1353 130.937 15.1675 130.82 15.0065C130.777 14.9583 130.617 14.7651 130.469 14.5801C130.321 14.4031 130.131 14.0812 130.045 13.872C129.958 13.6628 129.835 13.4134 129.768 13.3168C129.7 13.2203 129.645 13.1076 129.645 13.0593C129.638 12.9226 129.349 12.0536 129.306 12.0536C129.282 12.0536 129.245 11.9007 129.226 11.7076C129.208 11.5225 129.146 11.1846 129.097 10.9673C128.968 10.3719 128.882 9.33392 128.943 9.08448C128.974 8.97184 129.005 8.63389 129.017 8.34423C129.035 8.04652 129.06 7.77294 129.085 7.72467C129.195 7.48328 128.814 7.00855 128.599 7.11315C128.549 7.14533 128.469 7.12924 128.426 7.08096C128.334 6.98441 126.722 6.96832 126.599 7.06487Z" fill="#4845D2"/>
</svg>
